<svg xmlns="http://www.w3.org/2000/svg" viewBox="0 0 32 32"><defs><style>.cls-1{fill:#231f20;}</style></defs><g id="parrot"><path class="cls-1" d="M23.21,4H16.46A6.47,6.47,0,0,0,10,10.46V15a1,1,0,0,0,2,0V10.46A4.46,4.46,0,0,1,16.46,6H21V22.17A4.84,4.84,0,0,1,16.17,27H14.78a6.28,6.28,0,0,0,1.11-1.54c.3-.59,1.7-3.62-.08-6.05S10.73,17,8.53,18.12a6,6,0,0,0-2.4,2.38l-4,7a1,1,0,0,0,0,1A1,1,0,0,0,3,29H16.17A6.83,6.83,0,0,0,23,22.17V17.91A6,6,0,0,0,27.91,13H29a1,1,0,0,0,1-1V10.79A6.79,6.79,0,0,0,23.21,4Zm-9.1,20.54A5.06,5.06,0,0,1,10.89,27H4.72l3-5.17a7.76,7.76,0,0,0,2.8,3A1,1,0,0,0,11,25a1,1,0,0,0,.85-.48,1,1,0,0,0-.33-1.37,5.89,5.89,0,0,1-2.42-3,2,2,0,0,1,.37-.24c1.46-.78,3.71-.68,4.72.7S14.24,24.3,14.11,24.54ZM23,15.86V13h2.86A4,4,0,0,1,23,15.86ZM28,11H23V6h.21A4.8,4.8,0,0,1,28,10.79Z"/><path class="cls-1" d="M19,9a1,1,0,0,0-1-1h0a1,1,0,1,0,1,1Z"/></g></svg>